# xmcd
# 
# Track frame offsets:
#     150
#     14064
#     27038
#     41731
#     55227
#     69071
#     83424
#     94822
#     110668
#     126062
#     144441
# 
# Disc length: 2195
# 
# Revision: 1
# Processed by: cddbd v1.5.2PL0 Copyright (c) Steve Scherf et al.
# Submitted via: fre:ac v1.0.31
# 
DISCID=8908910b
DTITLE=Milow - North and South
DYEAR=0
DGENRE=Country
TTITLE0=Son
TTITLE1=She might she might
TTITLE2=You and me (in my Pocket)
TTITLE3=Little in the middle
TTITLE4=Building bridges
TTITLE5=Never gonna stop
TTITLE6=Rambo
TTITLE7=California rain
TTITLE8=Move to town
TTITLE9=The kingdom
TTITLE10=KGB
EXTD=
EXTT0=
EXTT1=
EXTT2=
EXTT3=
EXTT4=
EXTT5=
EXTT6=
EXTT7=
EXTT8=
EXTT9=
EXTT10=
PLAYORDER=
